<svg width="259" height="43" viewBox="0 0 259 43" fill="none" xmlns="http://www.w3.org/2000/svg">
<path d="M29.3 2.92L28.4685 4.73895L28.4793 4.74389L28.4901 4.7487L29.3 2.92ZM35.78 8.32L34.0986 9.40296L34.1028 9.40952L34.1071 9.41605L35.78 8.32ZM35.78 24.76L37.4529 25.8561H37.4529L35.78 24.76ZM29.3 30.16L30.1099 31.9887L30.1207 31.9839L30.1315 31.9789L29.3 30.16ZM12.08 32.02V30.02H10.08V32.02H12.08ZM12.08 43V45H14.08V43H12.08ZM0.2 43H-1.8V45H0.2V43ZM0.2 0.999997V-1H-1.8V0.999997H0.2ZM24.2 21.1L25.4852 22.6324L25.4995 22.6204L25.5136 22.6082L24.2 21.1ZM12.08 10.36V8.36H10.08V10.36H12.08ZM12.08 22.66H10.08V24.66H12.08V22.66ZM19.4 3C22.9786 3 25.9831 3.60279 28.4685 4.73895L30.1315 1.10105C27.0169 -0.322797 23.4214 -1 19.4 -1V3ZM28.4901 4.7487C30.9669 5.84553 32.8092 7.40109 34.0986 9.40296L37.4614 7.23704C35.7108 4.51891 33.2331 2.47446 30.1099 1.0913L28.4901 4.7487ZM34.1071 9.41605C35.385 11.3666 36.06 13.7136 36.06 16.54H40.06C40.06 13.0464 39.215 9.91342 37.4529 7.22395L34.1071 9.41605ZM36.06 16.54C36.06 19.3664 35.385 21.7134 34.1071 23.6639L37.4529 25.8561C39.215 23.1666 40.06 20.0336 40.06 16.54H36.06ZM34.1071 23.6639C32.8161 25.6344 30.9644 27.2 28.4685 28.341L30.1315 31.9789C33.2356 30.56 35.7039 28.5256 37.4529 25.8561L34.1071 23.6639ZM28.4901 28.3313C25.9988 29.4346 22.9864 30.02 19.4 30.02V34.02C23.4137 34.02 27.0012 33.3654 30.1099 31.9887L28.4901 28.3313ZM19.4 30.02H12.08V34.02H19.4V30.02ZM10.08 32.02V43H14.08V32.02H10.08ZM12.08 41H0.2V45H12.08V41ZM2.2 43V0.999997H-1.8V43H2.2ZM0.2 3H19.4V-1H0.2V3ZM18.68 24.66C21.3605 24.66 23.7415 24.0949 25.4852 22.6324L22.9148 19.5676C22.1785 20.1851 20.8795 20.66 18.68 20.66V24.66ZM25.5136 22.6082C27.2738 21.0751 28.06 18.9565 28.06 16.54H24.06C24.06 18.0435 23.6062 18.9649 22.8864 19.5918L25.5136 22.6082ZM28.06 16.54C28.06 14.1235 27.2738 12.0049 25.5136 10.4718L22.8864 13.4882C23.6062 14.1151 24.06 15.0365 24.06 16.54H28.06ZM25.5136 10.4718C23.7684 8.95189 21.3756 8.36 18.68 8.36V12.36C20.8644 12.36 22.1516 12.8481 22.8864 13.4882L25.5136 10.4718ZM18.68 8.36H12.08V12.36H18.68V8.36ZM10.08 10.36V22.66H14.08V10.36H10.08ZM12.08 24.66H18.68V20.66H12.08V24.66ZM69.883 34.84L71.7371 34.0902L71.2315 32.84H69.883V34.84ZM52.123 34.84V32.84H50.7744L50.2689 34.0902L52.123 34.84ZM48.823 43V45H50.1715L50.6771 43.7498L48.823 43ZM36.703 43L34.8733 42.1923L33.6339 45H36.703V43ZM55.243 0.999997V-1H53.9396L53.4133 0.19233L55.243 0.999997ZM66.943 0.999997L68.7717 0.190145L68.2446 -1H66.943V0.999997ZM85.543 43V45H88.616L87.3717 42.1901L85.543 43ZM73.183 43L71.3288 43.7498L71.8344 45H73.183V43ZM66.403 26.08V28.08H69.3619L68.2588 25.3344L66.403 26.08ZM61.003 12.64L62.8588 11.8944L61.003 7.27546L59.1472 11.8944L61.003 12.64ZM55.603 26.08L53.7472 25.3344L52.644 28.08H55.603V26.08ZM69.883 32.84H52.123V36.84H69.883V32.84ZM50.2689 34.0902L46.9688 42.2502L50.6771 43.7498L53.9771 35.5898L50.2689 34.0902ZM48.823 41H36.703V45H48.823V41ZM38.5326 43.8077L57.0726 1.80766L53.4133 0.19233L34.8733 42.1923L38.5326 43.8077ZM55.243 3H66.943V-1H55.243V3ZM65.1143 1.80985L83.7143 43.8099L87.3717 42.1901L68.7717 0.190145L65.1143 1.80985ZM85.543 41H73.183V45H85.543V41ZM75.0371 42.2502L71.7371 34.0902L68.0289 35.5898L71.3288 43.7498L75.0371 42.2502ZM68.2588 25.3344L62.8588 11.8944L59.1472 13.3856L64.5472 26.8256L68.2588 25.3344ZM59.1472 11.8944L53.7472 25.3344L57.4588 26.8256L62.8588 13.3856L59.1472 11.8944ZM55.603 28.08H66.403V24.08H55.603V28.08ZM107.271 31.84L108.923 30.7122L108.327 29.84H107.271V31.84ZM100.791 31.84V29.84H98.7909V31.84H100.791ZM100.791 43V45H102.791V43H100.791ZM88.9109 43H86.9109V45H88.9109V43ZM88.9109 0.999997V-1H86.9109V0.999997H88.9109ZM118.011 2.92L117.179 4.73895L117.19 4.74389L117.201 4.7487L118.011 2.92ZM124.491 8.32L122.81 9.40296L122.814 9.40952L122.818 9.41605L124.491 8.32ZM124.611 24.52L122.92 23.452L122.915 23.46L124.611 24.52ZM118.551 29.8L117.678 28.0004L115.586 29.0148L116.902 30.9318L118.551 29.8ZM127.611 43V45H131.409L129.26 41.8682L127.611 43ZM114.891 43L113.239 44.1278L113.835 45H114.891V43ZM100.791 10.36V8.36H98.7909V10.36H100.791ZM100.791 22.66H98.7909V24.66H100.791V22.66ZM112.911 21.1L114.196 22.6324L114.21 22.6204L114.225 22.6082L112.911 21.1ZM107.271 29.84H100.791V33.84H107.271V29.84ZM98.7909 31.84V43H102.791V31.84H98.7909ZM100.791 41H88.9109V45H100.791V41ZM90.9109 43V0.999997H86.9109V43H90.9109ZM88.9109 3H108.111V-1H88.9109V3ZM108.111 3C111.69 3 114.694 3.60279 117.179 4.73895L118.842 1.10105C115.728 -0.322797 112.132 -1 108.111 -1V3ZM117.201 4.7487C119.678 5.84553 121.52 7.40109 122.81 9.40296L126.172 7.23704C124.422 4.51891 121.944 2.47446 118.821 1.0913L117.201 4.7487ZM122.818 9.41605C124.096 11.3666 124.771 13.7136 124.771 16.54H128.771C128.771 13.0464 127.926 9.91342 126.164 7.22395L122.818 9.41605ZM124.771 16.54C124.771 19.2515 124.133 21.5311 122.92 23.452L126.302 25.588C127.969 22.9489 128.771 19.9085 128.771 16.54H124.771ZM122.915 23.46C121.736 25.3463 120.018 26.8658 117.678 28.0004L119.423 31.5996C122.363 30.1742 124.686 28.1737 126.307 25.58L122.915 23.46ZM116.902 30.9318L125.962 44.1318L129.26 41.8682L120.2 28.6682L116.902 30.9318ZM127.611 41H114.891V45H127.611V41ZM116.543 41.8722L108.923 30.7122L105.619 32.9678L113.239 44.1278L116.543 41.8722ZM116.771 16.54C116.771 14.1235 115.985 12.0049 114.225 10.4718L111.597 13.4882C112.317 14.1151 112.771 15.0365 112.771 16.54H116.771ZM114.225 10.4718C112.479 8.95189 110.087 8.36 107.391 8.36V12.36C109.575 12.36 110.863 12.8481 111.597 13.4882L114.225 10.4718ZM107.391 8.36H100.791V12.36H107.391V8.36ZM98.7909 10.36V22.66H102.791V10.36H98.7909ZM100.791 24.66H107.391V20.66H100.791V24.66ZM107.391 24.66C110.071 24.66 112.452 24.0949 114.196 22.6324L111.626 19.5676C110.889 20.1851 109.59 20.66 107.391 20.66V24.66ZM114.225 22.6082C115.985 21.0751 116.771 18.9565 116.771 16.54H112.771C112.771 18.0435 112.317 18.9649 111.597 19.5918L114.225 22.6082ZM141.679 10.42H143.679V8.42H141.679V10.42ZM128.779 10.42H126.779V12.42H128.779V10.42ZM128.779 0.999997V-1H126.779V0.999997H128.779ZM166.399 0.999997H168.399V-1H166.399V0.999997ZM166.399 10.42V12.42H168.399V10.42H166.399ZM153.559 10.42V8.42H151.559V10.42H153.559ZM153.559 43V45H155.559V43H153.559ZM141.679 43H139.679V45H141.679V43ZM141.679 8.42H128.779V12.42H141.679V8.42ZM130.779 10.42V0.999997H126.779V10.42H130.779ZM128.779 3H166.399V-1H128.779V3ZM164.399 0.999997V10.42H168.399V0.999997H164.399ZM166.399 8.42H153.559V12.42H166.399V8.42ZM151.559 10.42V43H155.559V10.42H151.559ZM153.559 41H141.679V45H153.559V41ZM143.679 43V10.42H139.679V43H143.679ZM204.545 33.82H206.545V31.82H204.545V33.82ZM204.545 43V45H206.545V43H204.545ZM170.825 43H168.825V45H170.825V43ZM170.825 0.999997V-1H168.825V0.999997H170.825ZM203.765 0.999997H205.765V-1H203.765V0.999997ZM203.765 10.18V12.18H205.765V10.18H203.765ZM182.585 10.18V8.18H180.585V10.18H182.585ZM182.585 17.26H180.585V19.26H182.585V17.26ZM201.245 17.26H203.245V15.26H201.245V17.26ZM201.245 26.14V28.14H203.245V26.14H201.245ZM182.585 26.14V24.14H180.585V26.14H182.585ZM182.585 33.82H180.585V35.82H182.585V33.82ZM202.545 33.82V43H206.545V33.82H202.545ZM204.545 41H170.825V45H204.545V41ZM172.825 43V0.999997H168.825V43H172.825ZM170.825 3H203.765V-1H170.825V3ZM201.765 0.999997V10.18H205.765V0.999997H201.765ZM203.765 8.18H182.585V12.18H203.765V8.18ZM180.585 10.18V17.26H184.585V10.18H180.585ZM182.585 19.26H201.245V15.26H182.585V19.26ZM199.245 17.26V26.14H203.245V17.26H199.245ZM201.245 24.14H182.585V28.14H201.245V24.14ZM180.585 26.14V33.82H184.585V26.14H180.585ZM182.585 35.82H204.545V31.82H182.585V35.82ZM258.898 33.58H260.898V31.58H258.898V33.58ZM258.898 43V45H260.898V43H258.898ZM226.198 43H224.198V45H226.198V43ZM226.198 35.56L224.832 34.0992L224.198 34.692V35.56H226.198ZM241.918 20.86L243.285 22.3208L243.294 22.3119L241.918 20.86ZM244.978 17.2L246.753 18.1227L246.76 18.1086L246.767 18.0944L244.978 17.2ZM244.378 10.9L245.652 9.35807L244.378 10.9ZM236.038 10.84L236.977 12.6062L236.986 12.6011L236.996 12.5958L236.038 10.84ZM232.858 13.84L231.884 15.5866L233.532 16.5061L234.546 14.9137L232.858 13.84ZM224.038 8.92L222.326 7.88731L221.258 9.65887L223.064 10.6666L224.038 8.92ZM230.938 2.5L231.871 4.26932V4.26932L230.938 2.5ZM249.898 1.72L249.114 3.55988L249.125 3.56439L249.898 1.72ZM255.658 6.22L254.015 7.36016L254.029 7.37941L254.042 7.39834L255.658 6.22ZM256.258 19.42L254.463 18.5397L254.459 18.5471L254.455 18.5545L256.258 19.42ZM250.618 26.26L249.269 24.7839L249.261 24.7912L250.618 26.26ZM242.698 33.58L241.341 32.1112L237.588 35.58H242.698V33.58ZM256.898 33.58V43H260.898V33.58H256.898ZM258.898 41H226.198V45H258.898V41ZM228.198 43V35.56H224.198V43H228.198ZM227.564 37.0208L243.284 22.3208L240.552 19.3992L224.832 34.0992L227.564 37.0208ZM243.294 22.3119C244.862 20.8266 246.077 19.4228 246.753 18.1227L243.204 16.2773C242.84 16.9772 242.015 18.0134 240.543 19.4081L243.294 22.3119ZM246.767 18.0944C247.41 16.8099 247.758 15.4655 247.758 14.08H243.758C243.758 14.7745 243.587 15.5101 243.19 16.3056L246.767 18.0944ZM247.758 14.08C247.758 12.217 247.1 10.5538 245.652 9.35807L243.105 12.4419C243.497 12.7662 243.758 13.223 243.758 14.08H247.758ZM245.652 9.35807C244.238 8.18963 242.37 7.76 240.358 7.76V11.76C241.867 11.76 242.679 12.0904 243.105 12.4419L245.652 9.35807ZM240.358 7.76C238.477 7.76 236.706 8.19784 235.081 9.08421L236.996 12.5958C238.011 12.0422 239.12 11.76 240.358 11.76V7.76ZM235.1 9.07377C233.491 9.92876 232.182 11.1785 231.171 12.7662L234.546 14.9137C235.215 13.8615 236.026 13.1112 236.977 12.6062L235.1 9.07377ZM233.833 12.0934L225.013 7.17337L223.064 10.6666L231.884 15.5866L233.833 12.0934ZM225.751 9.95269C227.193 7.56168 229.215 5.66891 231.871 4.26932L230.006 0.730681C226.742 2.45108 224.164 4.83831 222.326 7.88731L225.751 9.95269ZM231.871 4.26932C234.49 2.88919 237.657 2.16 241.438 2.16V-1.84C237.14 -1.84 233.307 -1.00919 230.006 0.730682L231.871 4.26932ZM241.438 2.16C244.423 2.16 246.968 2.64496 249.114 3.55984L250.683 -0.119847C247.949 -1.28496 244.854 -1.84 241.438 -1.84V2.16ZM249.125 3.56439C251.3 4.47647 252.899 5.75147 254.015 7.36016L257.302 5.07984C255.698 2.76852 253.457 1.04352 250.672 -0.124391L249.125 3.56439ZM254.042 7.39834C255.173 8.94915 255.758 10.7689 255.758 12.94H259.758C259.758 9.99113 258.944 7.33085 257.274 5.04165L254.042 7.39834ZM255.758 12.94C255.758 14.916 255.328 16.7747 254.463 18.5397L258.054 20.3003C259.189 17.9853 259.758 15.524 259.758 12.94H255.758ZM254.455 18.5545C253.658 20.216 251.995 22.2915 249.269 24.7839L251.968 27.7361C254.842 25.1085 256.939 22.624 258.061 20.2855L254.455 18.5545ZM249.261 24.7912L241.341 32.1112L244.056 35.0488L251.976 27.7288L249.261 24.7912ZM242.698 35.58H258.898V31.58H242.698V35.58Z" fill="white"/>
</svg>
